<svg xmlns="http://www.w3.org/2000/svg" viewBox="0 0 300 300"><defs><style>.cls-1{opacity:0.5;}.cls-2{fill:#fff;}</style></defs><title>Artboard 11</title><g id="Layer_1" data-name="Layer 1"><g class="cls-1"><path class="cls-2" d="M178.44,282l-1,0a18.27,18.27,0,0,1-16.69-13.81L118.07,97.65,96,156.42a18.28,18.28,0,0,1-17.11,11.86H22.06a18.28,18.28,0,0,1,0-36.55h44.2l38.2-101.86a18.28,18.28,0,0,1,34.84,2l42.63,170.51,22-58.77a18.28,18.28,0,0,1,17.11-11.86h56.86a18.28,18.28,0,1,1,0,36.55h-44.2l-38.2,101.86A18.28,18.28,0,0,1,178.44,282Z"/></g></g></svg>