<svg xmlns="http://www.w3.org/2000/svg" viewBox="0 0 501 405"><defs><style>.cls-1,.cls-3,.cls-7{font-size:17.82px;fill:#f2f2f2;font-family:Montserrat-SemiBold, Montserrat;font-weight:700;}.cls-1,.cls-4{letter-spacing:0.02em;}.cls-2{letter-spacing:0em;}.cls-3{letter-spacing:0.01em;}.cls-5{letter-spacing:0em;}.cls-6{letter-spacing:0.02em;}.cls-7{letter-spacing:0.02em;}.cls-8{letter-spacing:0.02em;}.cls-12,.cls-9{fill:none;stroke-miterlimit:10;}.cls-9{stroke:#fff;stroke-width:1.19px;}.cls-10{fill:#ef463f;}.cls-11{fill:#fff;opacity:0.5;}.cls-12{stroke:#2cdbd0;stroke-width:3.7px;}</style></defs><title>Artboard 14</title><g id="Layer_1" data-name="Layer 1"><text class="cls-1" transform="translate(220.53 388.85)">Fl<tspan class="cls-2" x="17.21" y="0">e</tspan><tspan x="28.38" y="0">xion</tspan></text><text class="cls-3" transform="translate(208.1 26.58)">E<tspan class="cls-4" x="12.12" y="0">x</tspan><tspan class="cls-5" x="22.68" y="0">t</tspan><tspan class="cls-4" x="30.27" y="0">ension</tspan></text><text class="cls-1" transform="translate(408.38 279.57)">Rotation<tspan x="15.03" y="21.38">Right</tspan></text><text class="cls-1" transform="translate(22.36 279.57)">Rotation<tspan class="cls-6"><tspan x="22.46" y="21.38">L</tspan><tspan class="cls-4" x="33.4" y="21.38">eft</tspan></tspan></text><text class="cls-7" transform="translate(395.03 102.59)">Side Be<tspan class="cls-8" x="71.73" y="0">n</tspan><tspan x="84.38" y="0">d</tspan><tspan class="cls-4"><tspan x="22.45" y="21.38">Right</tspan></tspan></text><text class="cls-7" transform="translate(9 102.59)">Side Be<tspan class="cls-8" x="71.73" y="0">n</tspan><tspan x="84.38" y="0">d</tspan><tspan class="cls-6"><tspan x="29.88" y="21.38">L</tspan><tspan class="cls-4" x="40.82" y="21.38">eft</tspan></tspan></text><line class="cls-9" x1="405.88" y1="290.08" x2="104.92" y2="116.33"/><line class="cls-9" x1="104.92" y1="290.08" x2="405.88" y2="116.33"/><path class="cls-10" d="M263.14,231.53c-1.06,4-3.25,7.07-3.71,10.69a38.67,38.67,0,0,0-3,13.8c-1,2.18-1.11,2.21-2.6.61-.18-1.57-.35-3.14-.58-4.7-.1-.68-.21-1.37-.34-2a.13.13,0,0,0,0-.05,26,26,0,0,0-1.49-5.12,38.77,38.77,0,0,0-2.79-8.51,11,11,0,0,1-1.38-4.4A44.24,44.24,0,0,0,263.14,231.53Z"/><path class="cls-11" d="M261.34,143.32c4.15,1,8.15,2.34,11.48,5.16a20.41,20.41,0,0,1,3,3.15,4.63,4.63,0,0,1,.53,5.61,26.85,26.85,0,0,0-2.58,11.71c0,2.07,0,4.13,0,6.79-8.55-6.34-15.92-13-18-23.67a1.87,1.87,0,0,1-.56-1S255,151,255,151a1.46,1.46,0,0,1,0,.22,2,2,0,0,1-.52.88c-2.11,10.63-9.36,17.33-17.82,23.42a5.83,5.83,0,0,1-.22-2.87,36,36,0,0,0-1.31-12c-.31-1.09-.44-2.39-1.12-3.19-2-2.33-.87-4.17.57-6.06,2.95-3.88,7-6,11.57-7.37.89-.27,1.8-.47,2.7-.7.51-.56,1.38,0,1.88-.6h8.09C259.55,143.42,260.62,142.65,261.34,143.32Z"/><path class="cls-11" d="M266.29,206.08c-.35-1.51-.85-3-1.15-4.5-.77-3.72-2-7.14-5.16-9.6a5.16,5.16,0,0,1-1.77-3.82c-.29-3-.73-5.92-1.13-8.88a4.11,4.11,0,0,1,1.41-4.16c.89-.7,1.69-1.5,2.6-2.2,2.62-2,2.65-2.78.59-5.25a29.93,29.93,0,0,1-2.46-3.18c-1.36-2.17-2.6-4.42-4.24-7.22a47,47,0,0,1-7.45,12,1.62,1.62,0,0,0,.17,2.47,43,43,0,0,0,4,3.84,3.23,3.23,0,0,1,1.35,3.76c-.7,2.61-.6,5.32-1,8a8.1,8.1,0,0,1-2.78,5.61,7.93,7.93,0,0,0-2.8,3.65c-1,3.56-2,7.16-2.91,10.75-.5,1.94,1,3.27,1.75,4.78.64,1.24,2,.85,3.1.86q6.21,0,12.41,0C265,213,267.22,210.08,266.29,206.08Zm-5.46-6.62a3.71,3.71,0,0,1-.71.53,5.32,5.32,0,0,1-1.57,1.39c-3.5,2.8-3.47,3.19-7.65-.27-.47-.38-.92-.78-1.38-1.18a3.25,3.25,0,0,1-.53-.27c-.32-.24-.72-.57-.53-1s.7-.13,1,0a3.39,3.39,0,0,1,.69.55,1,1,0,0,1,.3.07,7.84,7.84,0,0,0,9,0,3.2,3.2,0,0,1,.67-.57c.32-.16.72-.54,1,0C261.22,198.85,261,199.25,260.84,199.47Z"/><path class="cls-11" d="M246.65,193c-3.55,4.71-4.3,10.09-5.72,15.51-2.44-1.1-3.8-3.15-5.58-4.59a41,41,0,0,1-5-5.53c-3.08-3.6-4.31-8-5.06-12.5a49.53,49.53,0,0,1,2.3-24.4,13.28,13.28,0,0,1,.93-2.29c.37-.66.42-1.83,1.52-1.67.9.13,1.28,1,1.52,1.82,2.61,8.27,3.86,16.53-.25,24.73-.09.19-.2.36-.29.55-2.15,4.79-2.33,5.12,3.57,6,3.16.49,6.33.91,9.48,1.42A16.49,16.49,0,0,1,246.65,193Z"/><path class="cls-11" d="M269.31,208.18c-.9-1.85-1.08-4-1.68-6.08-.79-2.67-1.35-5.39-3.23-7.62-1-1.13-.71-1.62.86-2.13,3.26-1.05,6.67-1.21,10-1.68,6.44-.9,6.1-1.48,3.68-6.32-3.17-6.34-3.33-12.88-1.85-19.61a47.8,47.8,0,0,1,1.23-4.79c.31-.93.53-2.19,1.83-2.23s1.36,1.15,1.71,1.95a47,47,0,0,1,3,11.32,45.13,45.13,0,0,1-1,19,22.31,22.31,0,0,1-5,9.46c-2.57,2.83-5.38,5.44-8.09,8.14C270.44,207.91,270.12,208.36,269.31,208.18Z"/><path class="cls-10" d="M252.69,262.18c-.37.72-.83,1.17-1.72.73a15.94,15.94,0,0,1-3.76-2.14,68,68,0,0,1-15-18.85,4.34,4.34,0,0,1-.72-2.66c.5-3.35.38-6.78,1.23-10.37,7.28,7.4,13,15.49,16.21,25.17a5.47,5.47,0,0,0,1.06,2.17c.16-1.15.35-2.06-.41-2.83a27,27,0,0,0-4-11.6c-3.17-5.21-7.25-9.76-10.91-14.61-.24-.32-.45-.66-1-1.47,3.15,1.46,5.79,2.71,8.45,3.91a7,7,0,0,1,3.39,3.45A83.88,83.88,0,0,1,250.82,246c.38,1.6.72,3.22,1.15,4.8C253,254.52,252.43,258.37,252.69,262.18Z"/><path class="cls-11" d="M253.25,251.93c-.1-.68-.21-1.37-.34-2A12.08,12.08,0,0,1,253.25,251.93Z"/><path class="cls-10" d="M275.32,246.24a74.05,74.05,0,0,1-10.59,12.94,18.8,18.8,0,0,1-6.7,4.16,16.12,16.12,0,0,1-1-6.06c.15-.27.45-.52.45-.77,0-4.51,1.53-8.72,2.57-13,1.55-3.68,3-7.42,4.86-11a5.56,5.56,0,0,1,2.76-2.73c2.27-1,4.49-2.06,6.72-3.09a2.84,2.84,0,0,1,.66-.59c.32-.15.73-.56,1-.06.08.15-.13.56-.29.78a3.41,3.41,0,0,1-.69.56c-2.87,3.76-5.79,7.49-8.59,11.31a29,29,0,0,0-5.85,14.09c-.8.81-.67,1.74-.42,2.8a2.36,2.36,0,0,0,1.08-2.14c3.19-9.5,9.21-17.16,15.94-24.57a15.05,15.05,0,0,1,.88,4.91,6.6,6.6,0,0,0,.07,2.17C279.48,240,277.42,243.07,275.32,246.24Z"/><path class="cls-11" d="M247.24,265.14a5.11,5.11,0,0,1-3.61-.09,193.16,193.16,0,0,0-18.91-4.75,42.16,42.16,0,0,1-12.6-5.08,7,7,0,0,1-2.89-2.25c.12-1,1.09-.82,1.66-1.09,5.42-2.55,10.88-5,16.31-7.57,2.91-1.36,3-1.34,4.49,1.38,2.67,5,6.5,9,10.3,13.13,1.27,1.36,2.64,2.63,3.94,4C246.55,263.45,247.39,264,247.24,265.14Z"/><path class="cls-11" d="M301.37,252.83a37.93,37.93,0,0,1-14,6.94c-7.17,1.91-14.51,3.12-21.58,5.44a3.41,3.41,0,0,1-3.07-.26c.29-1.23,1.31-1.86,2.07-2.63a118,118,0,0,0,11.09-12.5,30.1,30.1,0,0,0,2.92-4.73c.93-1.9,1.34-2.08,3.33-1.18,2.63,1.19,5.21,2.5,7.83,3.71C293.59,249.32,297.26,251,301.37,252.83Z"/><path class="cls-11" d="M282.5,198.74c-1,4.4-1.06,8.38-1.61,12.29-.33,2.35,0,4.72-.71,7.06a5.64,5.64,0,0,1-2.09,3.28,49.4,49.4,0,0,1-13.48,6.83c-2.2.72-2.57.41-2.7-1.8a5.89,5.89,0,0,1,1.07-3.77c1.59-2.41,3-4.94,4.45-7.43a22.2,22.2,0,0,1,4.78-6,39.75,39.75,0,0,0,6.38-6.73A13.77,13.77,0,0,1,282.5,198.74Z"/><path class="cls-11" d="M227.84,199a6.29,6.29,0,0,1,2.9,2.5,39.8,39.8,0,0,0,6.08,6.61,31.5,31.5,0,0,1,7,9c1,1.81,2.16,3.52,3.24,5.28a6.49,6.49,0,0,1,1.06,1.87c.26,1.29.64,2.76-.42,3.84s-2.2.1-3.18-.26a56.7,56.7,0,0,1-11.84-6.06,6.22,6.22,0,0,1-3-5.11A155.56,155.56,0,0,0,227.84,199Z"/><path class="cls-11" d="M255.33,215.56c2.07,0,4.14,0,6.21,0,.91,0,2-.27,2.56.68.65,1.12-.41,1.89-.92,2.72a20.81,20.81,0,0,1-1.44,2,10.06,10.06,0,0,0-2.37,5.6c-.24,3.07-.6,3.26-3.61,3.3-.83,0-1.66,0-2.48,0a2.07,2.07,0,0,1-2.41-2.22c.06-3.26-1.77-5.63-3.45-8.1-.29-.43-.68-.79-1-1.21-1.14-1.7-.68-2.66,1.44-2.74,2.48-.1,5,0,7.45,0Z"/><path class="cls-11" d="M235.06,180.33c2.22-2.65,4.28-5.22,7.11-7a4.22,4.22,0,0,1,4.4-.27,13.85,13.85,0,0,1,4.38,3.88,2.5,2.5,0,0,1,.33,2.37c-.73,2.9-1.45,5.8-2.27,8.68-.69,2.45-2.38,3.68-4.78,3.17-3.33-.7-6.62-1.5-10-2-2-.29-2.85-2.34-2-4.25a1,1,0,0,1,1.52-.49c1.15.69,2.24,1.49,3.39,2.18,3.8,2.27,7.18,2,10-.66,1.35-1.31,1.4-1.63,0-3-2.32-2.24-5-3.59-8.35-3A26.35,26.35,0,0,0,235.06,180.33Z"/><path class="cls-11" d="M275.91,189.13c-3.41.38-6.66,1.36-10,2-2.4.47-4-.78-4.73-3.25-.78-2.79-1.48-5.59-2.2-8.38a3.08,3.08,0,0,1,.92-3.39c.63-.54,1.15-1.19,1.77-1.74,2.64-2.36,4.61-2.49,7.46-.33a52.31,52.31,0,0,1,6.31,6.19c-1.74-.13-2.84-.12-3.92-.29a9.28,9.28,0,0,0-8.59,3.12c-1.34,1.41-1.32,1.8.18,2.92s3,2.22,5,2.09a5.25,5.25,0,0,0,3.79-1.15c1.56-.36,2.69-1.49,4-2.31,1.09-.7,1.72-.3,2.07.81C278.61,187.35,277.94,188.9,275.91,189.13Z"/><path class="cls-11" d="M293,188.75l-.5,1.25c-1.52,3.85-3.45,7.5-5.29,11.2a5.87,5.87,0,0,1-.83,1.3,1.79,1.79,0,0,1-2.26.38c-.78-.37-.83-1-.61-1.83,1.37-5.18,2.68-10.37,4-15.57a1.23,1.23,0,0,1,1.29-1.08C290.05,184.4,293,187.25,293,188.75Z"/><path class="cls-11" d="M226.67,201.64a1.48,1.48,0,0,1-2.34,1.25A3.3,3.3,0,0,1,223,201.2c-1.84-3.7-3.8-7.35-5.3-11.22-.73-1.89,1.44-5.45,3.41-5.54,1.23-.06,1.43.91,1.73,1.82,1.29,3.93,2.11,8,3.15,12C226.31,199.35,226.44,200.47,226.67,201.64Z"/><path class="cls-11" d="M255,279.26c-1.19-4.43-3.71-7.95-6.34-11.69,2.43-.81,4.36.35,6.34.37s3.93-1.36,6.39-.35A36,36,0,0,0,255,279.26Z"/><path class="cls-11" d="M241.71,186.89c-2.17.15-3.78-1.05-5.18-2.68-.78-.9-.68-1.62.38-2.24,2.41-1.42,7-.61,8.84,1.55.72.84.5,1.47-.23,2.09A5.41,5.41,0,0,1,241.71,186.89Z"/><path class="cls-11" d="M273.6,184.23a22.7,22.7,0,0,1-2.3,2.07l-3.14.67c-1.73-.32-4.05-.55-4-2.59,0-1.83,2.35-2.45,4-2.93a6.53,6.53,0,0,1,4.85.42C274.39,182.56,274.57,183.12,273.6,184.23Z"/><path class="cls-11" d="M254.5,152.05v-1.85a.72.72,0,0,1,1.17,0q0,.91,0,1.82Z"/><path class="cls-11" d="M255.68,150.24l-1.17,0a3.6,3.6,0,0,1,0-.89c.07-.26.24-.62.44-.68.51-.14.65.31.7.7A5.94,5.94,0,0,1,255.68,150.24Z"/><line class="cls-9" x1="254.96" y1="43.77" x2="254.96" y2="363.28"/><polygon class="cls-12" points="140.32 136.87 137.79 269.75 253.8 303.96 377.54 273.83 332.71 159.13 254.14 104.7 140.32 136.87"/></g></svg>