<svg xmlns="http://www.w3.org/2000/svg" xmlns:xlink="http://www.w3.org/1999/xlink" viewBox="0 0 508 98.5"><defs><style>.cls-1{fill:none;}.cls-2{clip-path:url(#clip-path);}.cls-3{fill:#fff;opacity:0.5;}.cls-4{fill:#ef463f;}</style><clipPath id="clip-path"><rect class="cls-1" x="6.5" y="-6.77" width="501.5" height="105.27" rx="10.8" ry="10.8"/></clipPath></defs><title>Artboard 7 copy</title><g id="Layer_1" data-name="Layer 1"><g class="cls-2"><path class="cls-3" d="M480.58,3.91a18.55,18.55,0,0,1,8,3.59,14.2,14.2,0,0,1,2.06,2.19,3.22,3.22,0,0,1,.37,3.9,18.67,18.67,0,0,0-1.8,8.14c0,1.44,0,2.87,0,4.72-5.95-4.41-11.07-9-12.53-16.46a1.3,1.3,0,0,1-.39-.72s-.11,0-.11,0a1,1,0,0,1,0,.15,1.38,1.38,0,0,1-.36.62c-1.47,7.39-6.51,12-12.39,16.29a4.06,4.06,0,0,1-.15-2,25,25,0,0,0-.91-8.32,5.91,5.91,0,0,0-.78-2.22c-1.38-1.62-.6-2.9.4-4.21a15.21,15.21,0,0,1,8-5.13c.62-.19,1.25-.33,1.88-.49.36-.39,1,0,1.31-.42h5.63C479.33,4,480.08,3.45,480.58,3.91Z"/><path class="cls-3" d="M514.65,82c-.38.68-1.14.81-1.76,1.12a15.65,15.65,0,0,0-3.55,2.43c-2.05,1.86-2.47,3.41-1.48,6a94.75,94.75,0,0,0,7.7,15.9,26.07,26.07,0,0,1,2.8,6.05,3.19,3.19,0,0,1-.94,3.68,49.91,49.91,0,0,1-13.13,9,25.16,25.16,0,0,1-13.93,1.66c-6.56-.88-11.57-7.32-12.39-13.05a24,24,0,0,1-.11-6.85c.28-2,.08-4,.21-6,.21-3.22.94-6.26,3.47-8.56a13.77,13.77,0,0,1,3.83-2.38,121.43,121.43,0,0,1,15.11-5.1,22.87,22.87,0,0,0,7.44-3.3,6.19,6.19,0,0,1,5.87-1.09C514.13,81.53,514.48,81.6,514.65,82Z"/><path class="cls-3" d="M437.74,81.82c1.82-.58,3.57-1.33,5.33-.08,4.33,3.07,9.43,4.15,14.36,5.7a73.25,73.25,0,0,1,10.91,4.08c3.48,1.73,5.2,4.59,5.81,8.3a26.83,26.83,0,0,1,.35,4.51c0,3.08.25,6.14.1,9.23-.35,6.86-6.72,14.5-15.43,14.6-7.62.09-13.81-2.89-19.62-7.24a54.26,54.26,0,0,1-4.47-3.74,3.4,3.4,0,0,1-1-3.89,25.41,25.41,0,0,1,2.76-5.85,108.48,108.48,0,0,0,7.74-15.9,4.68,4.68,0,0,0-1.21-5.67,15.06,15.06,0,0,0-3.64-2.67C439.09,82.86,438.25,82.72,437.74,81.82Z"/><path class="cls-3" d="M411,120.61c.06-7.78.87-15.32,4.08-22.38a19.91,19.91,0,0,1,5.68-7,45.72,45.72,0,0,1,14.62-8.14,2.56,2.56,0,0,1,2.25.11,20.53,20.53,0,0,1,4.59,3.2,3.09,3.09,0,0,1,1,3.12c-2.37,9.71-6.59,18.12-16.15,22.75-2,1-4,2-6.07,2.81C417.48,116.48,413.84,117.68,411,120.61Z"/><path class="cls-3" d="M484,47.56c-.24-1-.59-2.07-.8-3.13-.53-2.59-1.41-5-3.59-6.67a3.59,3.59,0,0,1-1.23-2.65c-.2-2.07-.51-4.12-.79-6.18a2.86,2.86,0,0,1,1-2.89c.62-.48,1.17-1,1.8-1.53,1.82-1.37,1.85-1.93.41-3.65a20.81,20.81,0,0,1-1.71-2.21c-.95-1.51-1.81-3.07-2.95-5A32.71,32.71,0,0,1,471,22a1.12,1.12,0,0,0,.12,1.72,29.92,29.92,0,0,0,2.81,2.67,2.25,2.25,0,0,1,.94,2.62,43.62,43.62,0,0,0-.66,5.54,5.63,5.63,0,0,1-1.93,3.9A5.51,5.51,0,0,0,470.3,41c-.72,2.48-1.39,5-2,7.48-.34,1.35.68,2.27,1.22,3.33.44.86,1.39.59,2.15.6q4.32,0,8.63,0C483.11,52.34,484.67,50.34,484,47.56ZM480.23,43a2.58,2.58,0,0,1-.49.37,3.7,3.7,0,0,1-1.09,1c-2.43,1.95-2.41,2.22-5.32-.19-.33-.27-.64-.55-1-.82a2.26,2.26,0,0,1-.37-.19c-.22-.16-.5-.4-.37-.67s.49-.09.71,0a2.35,2.35,0,0,1,.48.38.67.67,0,0,1,.21,0,5.45,5.45,0,0,0,6.23,0,2.23,2.23,0,0,1,.46-.4c.22-.11.5-.38.71,0C480.5,42.53,480.35,42.81,480.23,43Z"/><path class="cls-3" d="M470.37,38.45c-2.47,3.28-3,7-4,10.78-1.7-.77-2.64-2.19-3.88-3.19a28.49,28.49,0,0,1-3.45-3.84c-2.14-2.5-3-5.56-3.52-8.69a34.44,34.44,0,0,1,1.6-17,9.24,9.24,0,0,1,.65-1.6c.26-.46.29-1.27,1.05-1.16s.89.72,1.06,1.27c1.81,5.75,2.68,11.49-.17,17.2-.06.13-.14.25-.2.38C458,36,457.91,36.19,462,36.82c2.2.34,4.4.63,6.6,1A11.47,11.47,0,0,1,470.37,38.45Z"/><path class="cls-3" d="M486.12,49A27.59,27.59,0,0,1,485,44.79c-.55-1.86-.94-3.75-2.25-5.3-.66-.79-.49-1.13.6-1.48a40.52,40.52,0,0,1,7-1.17c4.48-.63,4.24-1,2.56-4.4-2.2-4.41-2.31-9-1.29-13.64a33.24,33.24,0,0,1,.86-3.33c.21-.64.37-1.52,1.27-1.55s.95.8,1.19,1.36a32.65,32.65,0,0,1,2.08,7.88,31.38,31.38,0,0,1-.67,13.19,15.51,15.51,0,0,1-3.49,6.58c-1.79,2-3.74,3.79-5.63,5.66C486.91,48.83,486.68,49.14,486.12,49Z"/><path class="cls-4" d="M474.56,86.57c-.26.5-.58.81-1.2.51a11.08,11.08,0,0,1-2.62-1.49,47.29,47.29,0,0,1-10.41-13.11,3,3,0,0,1-.5-1.85c.34-2.33.27-4.72.85-7.21,5.06,5.15,9,10.77,11.27,17.5a3.8,3.8,0,0,0,.74,1.51c.11-.8.25-1.43-.28-2a18.79,18.79,0,0,0-2.75-8.07c-2.21-3.62-5-6.79-7.59-10.16-.17-.22-.31-.46-.69-1,2.19,1,4,1.88,5.88,2.72a4.85,4.85,0,0,1,2.36,2.4,58.33,58.33,0,0,1,3.64,9c.27,1.12.5,2.24.8,3.34C474.8,81.24,474.38,83.92,474.56,86.57Z"/><path class="cls-3" d="M475,79.44c-.07-.47-.14-1-.24-1.42A8.4,8.4,0,0,1,475,79.44Z"/><path class="cls-4" d="M490.3,75.48a51.5,51.5,0,0,1-7.37,9,13.07,13.07,0,0,1-4.66,2.89,11.21,11.21,0,0,1-.7-4.21c.11-.19.31-.36.31-.54,0-3.13,1.06-6.06,1.79-9.05,1.08-2.56,2.08-5.16,3.38-7.63A3.87,3.87,0,0,1,485,64c1.58-.69,3.12-1.43,4.67-2.15a2,2,0,0,1,.46-.41c.22-.11.51-.39.72,0,.06.11-.09.39-.2.55a2.37,2.37,0,0,1-.48.39c-2,2.62-4,5.21-6,7.86A20.15,20.15,0,0,0,480.1,80,1.87,1.87,0,0,0,479.8,82a1.64,1.64,0,0,0,.75-1.49c2.22-6.61,6.4-11.93,11.08-17.09a10.47,10.47,0,0,1,.61,3.42,4.59,4.59,0,0,0,0,1.51C493.2,71.17,491.76,73.28,490.3,75.48Z"/><path class="cls-3" d="M470.77,88.63a3.55,3.55,0,0,1-2.51-.06,134.33,134.33,0,0,0-13.15-3.3,29.32,29.32,0,0,1-8.76-3.53,4.85,4.85,0,0,1-2-1.57c.09-.72.76-.57,1.16-.76,3.77-1.77,7.57-3.5,11.34-5.26,2-.95,2.1-.94,3.12,1,1.86,3.46,4.52,6.29,7.17,9.13.88.95,1.84,1.83,2.74,2.76C470.3,87.45,470.88,87.84,470.77,88.63Z"/><path class="cls-3" d="M508.42,80.07a26.37,26.37,0,0,1-9.75,4.83c-5,1.33-10.09,2.17-15,3.78a2.37,2.37,0,0,1-2.14-.18c.2-.86.91-1.29,1.44-1.83A82.07,82.07,0,0,0,490.68,78a20.93,20.93,0,0,0,2-3.29c.65-1.32.94-1.45,2.32-.82,1.83.83,3.62,1.74,5.45,2.58C503,77.63,505.56,78.77,508.42,80.07Z"/><path class="cls-3" d="M495.29,42.45c-.69,3.06-.73,5.83-1.12,8.55-.23,1.63,0,3.28-.49,4.91a3.92,3.92,0,0,1-1.46,2.28,34.35,34.35,0,0,1-9.37,4.75c-1.53.5-1.79.28-1.88-1.25a4.09,4.09,0,0,1,.75-2.62c1.11-1.67,2.09-3.43,3.1-5.17a15.44,15.44,0,0,1,3.32-4.18A27.64,27.64,0,0,0,492.57,45,9.58,9.58,0,0,1,495.29,42.45Z"/><path class="cls-3" d="M457.29,42.65a4.38,4.38,0,0,1,2,1.74A27.68,27.68,0,0,0,463.53,49a21.9,21.9,0,0,1,4.86,6.26c.68,1.26,1.5,2.45,2.26,3.67a4.51,4.51,0,0,1,.74,1.3c.18.9.44,1.92-.29,2.67s-1.53.07-2.21-.18a39.43,39.43,0,0,1-8.23-4.21,4.32,4.32,0,0,1-2.09-3.55A108.17,108.17,0,0,0,457.29,42.65Z"/><path class="cls-4" d="M481.83,65.25c-.74,2.8-2.26,4.92-2.58,7.43a26.89,26.89,0,0,0-2.09,9.59c-.68,1.52-.77,1.54-1.8.42-.13-1.09-.24-2.18-.4-3.27-.07-.47-.14-1-.24-1.42a.09.09,0,0,0,0,0,18.05,18.05,0,0,0-1-3.56,27,27,0,0,0-1.94-5.92,7.63,7.63,0,0,1-1-3.06A30.76,30.76,0,0,0,481.83,65.25Z"/><path class="cls-3" d="M476.4,54.15c1.44,0,2.88,0,4.32,0,.63,0,1.4-.19,1.78.47s-.28,1.31-.64,1.89a14.47,14.47,0,0,1-1,1.4,7,7,0,0,0-1.65,3.89c-.17,2.13-.42,2.27-2.51,2.29-.58,0-1.15,0-1.73,0a1.44,1.44,0,0,1-1.67-1.55c0-2.27-1.23-3.92-2.4-5.64-.2-.3-.47-.55-.67-.84-.79-1.18-.48-1.85,1-1.91,1.72-.07,3.45,0,5.18,0Z"/><path class="cls-3" d="M462.3,29.65a22.93,22.93,0,0,1,4.94-4.89,2.94,2.94,0,0,1,3.06-.19,9.63,9.63,0,0,1,3,2.7,1.74,1.74,0,0,1,.23,1.65c-.51,2-1,4-1.58,6-.48,1.7-1.65,2.56-3.32,2.2-2.31-.49-4.61-1-7-1.39a2,2,0,0,1-1.37-3,.67.67,0,0,1,1.06-.34c.8.48,1.56,1,2.36,1.51,2.64,1.58,5,1.42,6.93-.46.94-.91,1-1.13,0-2.08a6.4,6.4,0,0,0-5.81-2.08A18.32,18.32,0,0,0,462.3,29.65Z"/><path class="cls-3" d="M490.71,35.77c-2.37.27-4.63.95-7,1.4-1.67.32-2.81-.54-3.29-2.26-.54-1.94-1-3.89-1.53-5.83a2.14,2.14,0,0,1,.64-2.35c.44-.38.8-.83,1.23-1.21,1.84-1.64,3.21-1.73,5.19-.23a36.38,36.38,0,0,1,4.39,4.3c-1.21-.09-2-.08-2.73-.2a6.45,6.45,0,0,0-6,2.17c-.93,1-.92,1.25.13,2a5.28,5.28,0,0,0,3.5,1.45,3.65,3.65,0,0,0,2.64-.8,9.25,9.25,0,0,0,2.77-1.61c.76-.49,1.19-.21,1.44.57C492.59,34.53,492.12,35.61,490.71,35.77Z"/><path class="cls-3" d="M502.58,35.5l-.35.87c-1.06,2.68-2.4,5.22-3.68,7.79a4.08,4.08,0,0,1-.57.9,1.25,1.25,0,0,1-1.57.26c-.54-.26-.58-.7-.43-1.27.95-3.6,1.87-7.21,2.78-10.82a.86.86,0,0,1,.9-.75C500.55,32.48,502.56,34.46,502.58,35.5Z"/><path class="cls-3" d="M456.47,44.47a1,1,0,0,1-1.62.87,2.29,2.29,0,0,1-.91-1.17c-1.28-2.58-2.64-5.11-3.69-7.8-.51-1.31,1-3.79,2.37-3.85.86,0,1,.64,1.2,1.27.9,2.73,1.47,5.55,2.19,8.33C456.22,42.88,456.31,43.66,456.47,44.47Z"/><path class="cls-3" d="M476.19,98.45c-.83-3.08-2.58-5.53-4.41-8.13,1.69-.56,3,.24,4.41.26s2.73-.95,4.44-.24A25,25,0,0,0,476.19,98.45Z"/><path class="cls-3" d="M466.93,34.21a4.34,4.34,0,0,1-3.6-1.86c-.54-.63-.47-1.12.27-1.56a5.63,5.63,0,0,1,6.15,1.08c.5.59.35,1-.16,1.45A3.76,3.76,0,0,1,466.93,34.21Z"/><path class="cls-3" d="M489.1,32.36a15.78,15.78,0,0,1-1.6,1.44l-2.19.46c-1.2-.22-2.82-.38-2.78-1.8s1.64-1.71,2.79-2a4.54,4.54,0,0,1,3.37.29C489.65,31.2,489.78,31.59,489.1,32.36Z"/><path class="cls-3" d="M475.82,10V8.7a.5.5,0,0,1,.82,0l0,1.26Z"/><path class="cls-3" d="M476.64,8.72l-.82,0a2.5,2.5,0,0,1,0-.62c.05-.18.17-.43.31-.47.36-.09.45.21.49.49A4.13,4.13,0,0,1,476.64,8.72Z"/></g></g></svg>