<svg xmlns="http://www.w3.org/2000/svg" viewBox="0 0 300 300"><defs><style>.cls-1{fill:#2cdbd0;}</style></defs><title>Artboard 13</title><g id="Layer_1" data-name="Layer 1"><path class="cls-1" d="M176.28,272l-1,0a16.89,16.89,0,0,1-15.43-12.77l-39.4-157.59-20.37,54.32a16.89,16.89,0,0,1-15.82,11H31.75a16.89,16.89,0,0,1,0-33.78H72.6L107.91,39a16.89,16.89,0,0,1,32.2,1.83l39.4,157.59,20.37-54.32a16.89,16.89,0,0,1,15.82-11h52.55a16.89,16.89,0,1,1,0,33.78H227.4L192.09,261A16.9,16.9,0,0,1,176.28,272Z"/></g></svg>