<svg xmlns="http://www.w3.org/2000/svg" viewBox="0 0 300 300"><defs><style>.cls-1{fill:#fff;opacity:0.5;}</style></defs><title>Artboard 13</title><g id="Layer_1" data-name="Layer 1"><path class="cls-1" d="M280.74,122.73H266.32A118.73,118.73,0,0,0,251.54,87l10.2-10.19a11.26,11.26,0,0,0,0-15.92L239.08,38.26a11.26,11.26,0,0,0-15.92,0L213,48.46a118.79,118.79,0,0,0-35.7-14.78V19.25A11.26,11.26,0,0,0,166,8H134a11.26,11.26,0,0,0-11.26,11.25V33.68A118.79,118.79,0,0,0,87,48.46L76.84,38.26a11.26,11.26,0,0,0-15.92,0L38.26,60.92a11.26,11.26,0,0,0,0,15.92L48.46,87a118.72,118.72,0,0,0-14.78,35.7H19.26A11.25,11.25,0,0,0,8,134v32a11.26,11.26,0,0,0,11.26,11.26H33.68A118.86,118.86,0,0,0,48.46,213L38.26,223.16a11.26,11.26,0,0,0,0,15.92l22.66,22.65a11.26,11.26,0,0,0,15.92,0L87,251.54a118.71,118.71,0,0,0,35.7,14.78v14.42A11.26,11.26,0,0,0,134,292h32a11.26,11.26,0,0,0,11.26-11.26V266.32A118.71,118.71,0,0,0,213,251.54l10.19,10.19a11.26,11.26,0,0,0,15.92,0l22.66-22.65a11.26,11.26,0,0,0,0-15.92L251.54,213a118.8,118.8,0,0,0,14.78-35.7h14.42A11.26,11.26,0,0,0,292,166V134A11.25,11.25,0,0,0,280.74,122.73ZM150,207.15A57.15,57.15,0,1,1,207.15,150,57.15,57.15,0,0,1,150,207.15Z"/></g></svg>