<svg xmlns="http://www.w3.org/2000/svg" viewBox="0 0 37.33 37.33"><defs><style>.cls-1{fill:#808285;}</style></defs><title>Asset 7</title><g id="Layer_2" data-name="Layer 2"><g id="Layer_1-2" data-name="Layer 1"><path class="cls-1" d="M28,0a1.87,1.87,0,0,1,1.87,1.87V3.73h1.87a5.6,5.6,0,0,1,5.6,5.6v22.4a5.6,5.6,0,0,1-5.6,5.6H5.6A5.6,5.6,0,0,1,0,31.73V9.33a5.6,5.6,0,0,1,5.6-5.6H7.47V1.87a1.87,1.87,0,1,1,3.73,0V3.73H26.13V1.87A1.87,1.87,0,0,1,28,0ZM3.73,18.67V31.73A1.87,1.87,0,0,0,5.6,33.6H31.73a1.87,1.87,0,0,0,1.87-1.87V18.67Zm0-3.73H33.6V9.33a1.87,1.87,0,0,0-1.87-1.87H29.87V9.33a1.87,1.87,0,0,1-3.73,0V7.47H11.2V9.33a1.87,1.87,0,1,1-3.73,0V7.47H5.6A1.87,1.87,0,0,0,3.73,9.33Z"/></g></g></svg>