<svg id="Layer_1" data-name="Layer 1" xmlns="http://www.w3.org/2000/svg" viewBox="0 0 914.54 1168.45"><defs><style>.cls-1,.cls-3,.cls-4{fill:none;stroke:#b0b0b0;stroke-miterlimit:10;}.cls-1{stroke-width:9px;}.cls-2{fill:#b0b0b0;}.cls-3,.cls-4{stroke-width:7px;}.cls-4{stroke-dasharray:12.1 12.1;}</style></defs><title>Headtopright</title><path class="cls-1" d="M881,791.08c132.35,349.81-2.33,460-164.06,521.17-174.53,66-345.29,42.16-468-282C165,808.41,238.49,575.07,413,509S797.05,569.28,881,791.08Z" transform="translate(-140.88 -487.01)"/><path class="cls-1" d="M856.77,736.3s24.72-6.69,14.61-43.1,35.5-46.36,41.6-15.74-9,174.42-9.08,179" transform="translate(-140.88 -487.01)"/><path class="cls-1" d="M914.26,690.94s25.22,114.59-5.91,182.15" transform="translate(-140.88 -487.01)"/><path class="cls-1" d="M230,978.94s-23,11.35-39.48-22.64-57.3-11.24-41.6,15.74,128.29,128,131.4,131.36" transform="translate(-140.88 -487.01)"/><path class="cls-1" d="M156.87,983s60.83,104.77,128.89,134.81" transform="translate(-140.88 -487.01)"/><path class="cls-1" d="M507.59,1333.73s88.74,63.48,167.62,59.24c0,0,34.77,43.55,78.79,34.21s55.48-61.23,48.61-84.24,99.95-44.85,96.81-164.52" transform="translate(-140.88 -487.01)"/><path class="cls-1" d="M680.12,1326.18s22.59,23.46,47.2,16,23.2-42.62,23.2-42.62" transform="translate(-140.88 -487.01)"/><path class="cls-2" d="M643.42,1389.29a50.51,50.51,0,0,1,5.67-9,64.76,64.76,0,0,1,7.23-7.92,54.75,54.75,0,0,1,8.72-6.63,38.17,38.17,0,0,1,10.57-4.49,28.09,28.09,0,0,1,6.07-.76,22.14,22.14,0,0,1,6.3.9,20.8,20.8,0,0,1,10.21,7,28,28,0,0,1,3.11,4.91,33.49,33.49,0,0,1,2,5.2,37.3,37.3,0,0,1,1.53,10.66c-1.87-3.06-3.6-6-5.53-8.77a48.26,48.26,0,0,0-3-3.87,32.18,32.18,0,0,0-3.26-3.24,16.17,16.17,0,0,0-7.25-3.62,15.32,15.32,0,0,0-3.95-.27,20.44,20.44,0,0,0-4.16.62c-5.68,1.38-11.47,4.51-17.11,8S649.36,1385.36,643.42,1389.29Z" transform="translate(-140.88 -487.01)"/><path class="cls-2" d="M815.89,1324c-7.06,1-13.84,1.71-20.41,2.86s-12.93,2.62-18.1,5.34a20.44,20.44,0,0,0-3.53,2.29,15.32,15.32,0,0,0-2.78,2.81,16.17,16.17,0,0,0-3,7.51,32.19,32.19,0,0,0-.3,4.58,48.27,48.27,0,0,0,.34,4.87c.36,3.32,1,6.71,1.66,10.24a37.31,37.31,0,0,1-5.91-9,33.48,33.48,0,0,1-1.94-5.22,28,28,0,0,1-.92-5.73,20.8,20.8,0,0,1,3-12,22.13,22.13,0,0,1,4.13-4.84,28.1,28.1,0,0,1,5.05-3.45,38.17,38.17,0,0,1,10.9-3.63,54.74,54.74,0,0,1,10.93-.8,64.78,64.78,0,0,1,10.66,1.15A50.51,50.51,0,0,1,815.89,1324Z" transform="translate(-140.88 -487.01)"/><path class="cls-1" d="M585.48,1360.68l72.69-30.25L610.36,1339a113.94,113.94,0,0,1-19.73,1.78l-30.72.09S554.17,1358.28,585.48,1360.68Z" transform="translate(-140.88 -487.01)"/><path class="cls-1" d="M875.6,1245.82,802,1273.67l28.18-18.9a199.73,199.73,0,0,0,29-23.65l16.27-16S891.25,1224.34,875.6,1245.82Z" transform="translate(-140.88 -487.01)"/><path class="cls-3" d="M539.93,1651.68l6,.15" transform="translate(-140.88 -487.01)"/><path class="cls-4" d="M558,1652c192.49.3,362.86-83.17,462.52-211.2" transform="translate(-140.88 -487.01)"/><path class="cls-3" d="M1024.23,1436q1.81-2.39,3.59-4.8" transform="translate(-140.88 -487.01)"/><polygon class="cls-2" points="914.54 899.62 910.49 970.52 851.11 931.56 914.54 899.62 910.49 970.52 851.11 931.56 914.54 899.62"/></svg>