<svg id="Layer_1" data-name="Layer 1" xmlns="http://www.w3.org/2000/svg" viewBox="0 0 948.58 1375.71"><defs><style>.cls-1{fill:none;stroke:#b0b0b0;stroke-miterlimit:10;stroke-width:9.71px;}.cls-2{fill:#b0b0b0;}</style></defs><title>Head</title><path class="cls-1" d="M633,936.53c323.67,42.08,304.25-278.36,304.25-278.36s22.66-381.93-388.4-381.93c-308.59,0-372.75,215.25-385.56,322.57-3.26,27.34-1.94,55,2.79,82.1,5,28.4,6.18,76.71-33.14,105.11-58.26,42.08-77.68,110-51.79,119.76s64.73,25.89,71.21,35.6,0,38.84,0,38.84-25.89,35.6,6.47,61.5c0,0-22.66,45.31,19.42,58.26,0,0,17.9,28.13,3.69,41.2-6.33,5.83-11.65,12.74-14.08,21-5.79,19.66-5.92,50,46,54.32,64.86,5.4,165.82,6.3,269-117.89,39.25-47.25,62.55-105.72,67.65-166.94h0s55,29.13,77.68-38.84c0,0,116.52-29.13,77.68-181.25,0,0-6.47-42.08-64.73-48.55S547.24,734.24,557,782.79" transform="translate(-65.05 -271.39)"/><path class="cls-1" d="M579.61,792.5s-16.18,22.66,0,29.13,12.95,25.89,0,32.37,9.71,25.89,9.71,25.89,93.86-45.31,93.86-113.28" transform="translate(-65.05 -271.39)"/><path class="cls-1" d="M653.56,838.88S621.69,795.74,595.8,786V737.48s9.71-42.08,58.26-42.08,29.13,71.21,29.13,71.21-22.66,3.24-25.89-19.42" transform="translate(-65.05 -271.39)"/><path class="cls-2" d="M164.75,702.17c.84-1,1.55-1.73,2.33-2.56s1.55-1.59,2.34-2.36q2.36-2.31,4.84-4.48a120.13,120.13,0,0,1,10.34-8.1,100.11,100.11,0,0,1,23.26-12.25,74.19,74.19,0,0,1,26-4.62,68.6,68.6,0,0,1,25.67,5.26,84.48,84.48,0,0,1,11.6,5.91,102,102,0,0,1,10.53,7.49,133,133,0,0,1,18.07,18.11c10.87,13.11,19.69,27.65,27.46,42.62-8.47-14.59-18-28.64-29.29-41a130,130,0,0,0-18.48-16.83A98.09,98.09,0,0,0,269,682.64a79.92,79.92,0,0,0-11.2-5,63.11,63.11,0,0,0-23.85-3.72,67.51,67.51,0,0,0-23.42,5.34,92.27,92.27,0,0,0-20.86,12.31,111.34,111.34,0,0,0-9.21,8q-2.19,2.11-4.25,4.33c-.69.74-1.36,1.49-2,2.24s-1.33,1.56-1.83,2.21Z" transform="translate(-65.05 -271.39)"/><path class="cls-1" d="M391.88,1248.87l181.25,246s35.6,93.86,0,148.89l223.33-233L576.76,1147.05a126,126,0,0,1-28-63.29L537,999.52s16.72,87.52-61,171.68S391.88,1248.87,391.88,1248.87Z" transform="translate(-65.05 -271.39)"/><path class="cls-1" d="M540.77,999.65l.71,1.27,22.95.84A316.94,316.94,0,0,0,720.61,967.1c36-18.42,75.36-40.05,96.2-56.15,0,0-30,172.85,54.11,253.77l45.31,55s-3.24,68-119.76,191L564.28,1129.12S540.77,1090.28,540.77,999.65Z" transform="translate(-65.05 -271.39)"/><path class="cls-1" d="M304.49,782.79s-46.63,10.93-69.57,19.95c-17.86,7-38-5.26-38.31-24.45-.15-8.65,1.87-19,7.54-31.1,0,0,22.66-22.66,55,0s42.08,42.08,58.26,38.84" transform="translate(-65.05 -271.39)"/><path class="cls-1" d="M218.68,739s33.94,34.74,0,65.18" transform="translate(-65.05 -271.39)"/><path class="cls-1" d="M158.84,1041.73h97.1s-35.6-45.31-103.57-61.5" transform="translate(-65.05 -271.39)"/><path class="cls-1" d="M178.26,1100s71.21-22.66,77.68-58.26" transform="translate(-65.05 -271.39)"/><path class="cls-1" d="M152.37,863.71s58.26,32.37,16.18,71.21" transform="translate(-65.05 -271.39)"/><path class="cls-1" d="M107.06,899.31s29.13-3.24,45.31,16.18" transform="translate(-65.05 -271.39)"/><path class="cls-1" d="M217.1,1219.74l174.78,29.13s168.31-126.23,148.89-239.51" transform="translate(-65.05 -271.39)"/><path class="cls-1" d="M815.89,912.26s-16.79,168.14,41.78,237.81,152.43,170,152.43,170" transform="translate(-65.05 -271.39)"/></svg>