<svg id="Layer_1" data-name="Layer 1" xmlns="http://www.w3.org/2000/svg" viewBox="0 0 858.93 1068.35"><defs><style>.cls-1,.cls-3,.cls-4{fill:none;stroke:#b0b0b0;stroke-miterlimit:10;}.cls-1{stroke-width:6.86px;}.cls-2{fill:#b0b0b0;}.cls-3,.cls-4{stroke-width:7px;}.cls-4{stroke-dasharray:12.1 12.1;}</style></defs><title>Headlookingtop</title><path class="cls-1" d="M609.79,947.65C777.78,1105.4,899,913.88,899,913.88s170.68-209.37-64.73-379.11c-176.73-127.43-302.35-30.64-354,25.52a199.68,199.68,0,0,0-32.3,48.17C439,626.77,419.8,654.94,385.55,655c-50.74,0-89.93,30.95-79.11,47.2s26.38,41.56,26.08,49.79-16,22.24-16,22.24S287,783.9,294.8,812.1c0,0-31.69,16.6-12.94,41.38,0,0-1.36,23.5-14.9,25.12-6,.72-11.93,2.49-16.73,6.21-11.43,8.86-24,26.19,3.91,50.1C289,964.79,346.5,1007,456.85,978.46a211.86,211.86,0,0,0,107.67-67.67h0s19.48,39.4,60.53,9.83c0,0,78.76,31.43,119.33-71.73,0,0,13.67-26.77-17-54.53s-83.16,2-97.65,33.83" transform="translate(-103.26 -382.7)"/><path class="cls-1" d="M638.68,843.12s-18.62,6.29-12,16.68-3.28,20.18-13.37,18.54-5.13,18.84-5.13,18.84S680.62,910,708.69,871.06" transform="translate(-103.26 -382.7)"/><path class="cls-1" d="M661.88,900.21s-.44-37.87-11.26-54.12l20-27.8s22.94-20.09,50.74,0-12.72,52.81-12.72,52.81-14.31-7.5-6.81-21.81" transform="translate(-103.26 -382.7)"/><path class="cls-2" d="M438.39,620.08c1.68-.4,3.14-.65,4.7-.89s3.08-.42,4.62-.56a81.75,81.75,0,0,1,9.27-.37,69.86,69.86,0,0,1,18.37,2.59A52.88,52.88,0,0,1,492.11,629a48.7,48.7,0,0,1,12.52,13.6,61,61,0,0,1,4.24,8.15l1.59,4.28c.13.36.27.71.39,1.07l.3,1.1.6,2.19a85.06,85.06,0,0,1,1.91,8.86c.28,1.48.37,3,.56,4.48s.39,3,.45,4.48a171.22,171.22,0,0,1-1.86,35.75,170.39,170.39,0,0,0,.15-35.59c-.13-1.47-.44-2.92-.65-4.38s-.41-2.92-.76-4.36a82.66,82.66,0,0,0-2.27-8.51L508.6,658l-.34-1c-.13-.34-.28-.67-.42-1l-1.72-4a57.78,57.78,0,0,0-4.37-7.49,44.83,44.83,0,0,0-12.11-12,48.16,48.16,0,0,0-15.6-6.63,64.33,64.33,0,0,0-17-1.57,75.58,75.58,0,0,0-8.56.75c-1.42.2-2.83.44-4.22.72s-2.84.61-4,1Z" transform="translate(-103.26 -382.7)"/><path class="cls-1" d="M485.13,724s-31.22-13-48.08-17.3c-13.13-3.35-19.57-18.69-11.84-29.82,3.48-5,8.9-10.09,17.16-14.7,0,0,22.33-3.62,31.51,22.72s6.72,41.47,17.33,46.3" transform="translate(-103.26 -382.7)"/><path class="cls-1" d="M454.08,663.42s5.09,33.91-26.91,37.33" transform="translate(-103.26 -382.7)"/><path class="cls-1" d="M294.8,812.1l55.61,40.1s-1.68-40.65-33.92-78" transform="translate(-103.26 -382.7)"/><path class="cls-1" d="M281.86,853.48s50.14,16.43,68.54-1.29" transform="translate(-103.26 -382.7)"/><path class="cls-1" d="M364.6,707.48s20,42.59-20.14,47.46" transform="translate(-103.26 -382.7)"/><path class="cls-1" d="M323.94,709.16s18,10.17,19.27,28" transform="translate(-103.26 -382.7)"/><path class="cls-1" d="M254.65,938.1,342.72,1027s148.51-2.79,184.17-75.69" transform="translate(-103.26 -382.7)"/><path class="cls-1" d="M343.89,1027.07l148.85,320.78s3.9,70.77-31.82,100.19L661,1339l-91.5-224.37c-12.87-31.57-9.51-24-5.32-48.57l-34-120.57a.52.52,0,0,0-1,0c-2.58,7.94-16.45,41.28-71.36,60.05C395.17,1026.87,343.89,1027.07,343.89,1027.07Z" transform="translate(-103.26 -382.7)"/><path class="cls-1" d="M564.95,1099.84,661,1339C765.7,1281.09,782.41,1236,782.41,1236l-18.73-46.71c-39.33-72.44,20.23-185.28,20.23-185.28-26.5,9.68-68,8-102-7.78-10-4.63-20.29-8.47-28.92-15.28l-90.07-67.95-34,32,35,121S558,1089.63,564.95,1099.84Z" transform="translate(-103.26 -382.7)"/><path class="cls-1" d="M780.61,1007.69s-47.23,109.56-22.71,169,66.23,147,66.23,147" transform="translate(-103.26 -382.7)"/><path class="cls-3" d="M107.19,900q-.11-3-.19-6" transform="translate(-103.26 -382.7)"/><path class="cls-4" d="M106.79,881.95c-1.66-192.49,80.6-363.44,207.93-464" transform="translate(-103.26 -382.7)"/><path class="cls-3" d="M319.48,414.23q2.38-1.83,4.78-3.63" transform="translate(-103.26 -382.7)"/><polygon class="cls-2" points="265.33 0 194.46 4.55 233.84 63.65 265.33 0 194.46 4.55 233.84 63.65 265.33 0"/></svg>