<svg id="Layer_1" data-name="Layer 1" xmlns="http://www.w3.org/2000/svg" viewBox="0 0 861.59 1122.9"><defs><style>.cls-1,.cls-3,.cls-4{fill:none;stroke:#b0b0b0;stroke-miterlimit:10;}.cls-1{stroke-width:7.81px;}.cls-2{fill:#b0b0b0;}.cls-3,.cls-4{stroke-width:7px;}.cls-4{stroke-dasharray:12.1 12.1;}</style></defs><title>Headlookingdown</title><path class="cls-1" d="M694.89,887.69c253.05-70,138.43-301.47,138.43-301.47S730.66,296.07,426,424.64C197.28,521.16,217.06,700.76,241.13,784.31a227.51,227.51,0,0,0,27.74,60c12.55,19.5,28.58,54.92,8.31,88.27-30,49.41-23.15,105.86-.93,105s56.08-1.06,63.91,4.12,12.15,28.79,12.15,28.79-8.06,34.49,24,43.55c0,0-2.62,40.67,32.62,37.11,0,0,22.07,15.25,15.62,29.38-2.87,6.3-4.65,13.09-3.87,20,1.85,16.38,11.25,38.91,51.08,25.88,49.76-16.28,124.87-47.2,162.47-171.5a241.4,241.4,0,0,0-2.08-144.89h0s49.89,4.38,45.43-53.08c0,0,77.25-58,.88-158.63,0,0-18-29.16-63.16-15.74S568,764.59,590.43,797.54" transform="translate(-93.26 -387.87)"/><path class="cls-1" d="M610.26,797.65s-4.91,21.85,9.11,21.59,17.69,15.14,10.12,24,15.3,16.15,15.3,16.15,55.39-62.94,34.14-113.32" transform="translate(-93.26 -387.87)"/><path class="cls-1" d="M679.58,808.89s-37.12-22-59.35-21.1L605,751.8s-6-34.22,30-49.41,43.86,43.66,43.86,43.66-15.78,9.49-25.27-6.29" transform="translate(-93.26 -387.87)"/><path class="cls-2" d="M274.53,860.46c.61-1.88,1.23-3.44,1.93-5.1s1.41-3.24,2.19-4.83a93.16,93.16,0,0,1,5.13-9.24,79.6,79.6,0,0,1,13.41-16.35A60.25,60.25,0,0,1,315,813.43a55.49,55.49,0,0,1,20.65-4.12,69.5,69.5,0,0,1,10.44.7l5.11,1c.42.09.85.16,1.27.26l1.25.36,2.49.71a96.93,96.93,0,0,1,9.75,3.39c.81.28,1.58.67,2.36,1l2.33,1.08L373,818.9c.78.36,1.56.7,2.3,1.14A195.09,195.09,0,0,1,409,843c-10.86-8.14-22.3-15.57-34.55-21.23-.75-.39-1.54-.69-2.31-1l-2.34-1-2.33-1a25.09,25.09,0,0,0-2.35-.89,94.19,94.19,0,0,0-9.63-2.83l-2.43-.57-1.22-.29c-.41-.08-.82-.12-1.23-.19l-4.93-.71a65.83,65.83,0,0,0-9.88-.19,51.08,51.08,0,0,0-18.83,4.69,54.88,54.88,0,0,0-15.69,11.25,73.29,73.29,0,0,0-11.61,15.64,86.11,86.11,0,0,0-4.34,8.78c-.65,1.5-1.25,3-1.8,4.54s-1.09,3.12-1.46,4.5Z" transform="translate(-93.26 -387.87)"/><path class="cls-1" d="M646.24,974.12" transform="translate(-93.26 -387.87)"/><path class="cls-1" d="M646.24,974.12l66.77,173c2.61,18.74,23.33,60.33,31.37,80.45l35.77,93.08L600.49,1508.07c28.64-44.26,45.74-156.67,45.74-156.67l-97.87-162.94s36.93-26.05,60.16-71.13c34.9-67.71,33.69-65.18,37.71-143.22" transform="translate(-93.26 -387.87)"/><path class="cls-1" d="M576.19,991" transform="translate(-93.26 -387.87)"/><path class="cls-1" d="M632.56,919.42" transform="translate(-93.26 -387.87)"/><path class="cls-1" d="M838.5,788.29s-66.16,269.33,1.54,334.43L876.49,1167s-2.6,54.68-96.34,153.62L643.82,966.88s-1.61-30.57-11.26-57.12" transform="translate(-93.26 -387.87)"/><path class="cls-1" d="M403.32,876.5S372.17,899.19,358,913c-11,10.79-29.79,8-36-6.14-2.82-6.36-4.54-14.64-4.14-25.41,0,0,9.71-23.88,40.78-17.21s44.35,18,55.33,10.56" transform="translate(-93.26 -387.87)"/><path class="cls-1" d="M326,870.86s36,15.13,20.39,48.31" transform="translate(-93.26 -387.87)"/><path class="cls-1" d="M376.35,1114l72-30.37s-40.56-22.45-96-13.18" transform="translate(-93.26 -387.87)"/><path class="cls-1" d="M409,1151.07s45.69-39.06,39.35-67.48" transform="translate(-93.26 -387.87)"/><path class="cls-1" d="M315.88,984.05s53.3,5.77,34.27,47.71" transform="translate(-93.26 -387.87)"/><path class="cls-1" d="M293.43,1024.61s20.58-11.51,38.65-2.18" transform="translate(-93.26 -387.87)"/><path class="cls-1" d="M838.5,788.29s-56.23,266.59-9.12,322.64S952,1247.7,952,1247.7" transform="translate(-93.26 -387.87)"/><path class="cls-3" d="M97.19,836.7q-.11,3-.19,6" transform="translate(-93.26 -387.87)"/><path class="cls-4" d="M96.79,854.79c-1.66,192.49,80.6,363.44,207.93,464" transform="translate(-93.26 -387.87)"/><path class="cls-3" d="M309.48,1322.51q2.38,1.83,4.78,3.63" transform="translate(-93.26 -387.87)"/><polygon class="cls-2" points="265.33 966.17 194.46 961.62 233.84 902.52 265.33 966.17 194.46 961.62 233.84 902.52 265.33 966.17"/></svg>