<svg id="Layer_1" data-name="Layer 1" xmlns="http://www.w3.org/2000/svg" viewBox="0 0 912.2 1167.12"><defs><style>.cls-1,.cls-3,.cls-4{fill:none;stroke:#b0b0b0;stroke-miterlimit:10;}.cls-1{stroke-width:9px;}.cls-2{fill:#b0b0b0;}.cls-3,.cls-4{stroke-width:7px;}.cls-4{stroke-dasharray:12.1 12.1;}</style></defs><title>Headtopleft</title><path class="cls-1" d="M831,1023.63c-127.13,351.74-301.09,347.76-463.71,289-175.49-63.43-289.62-192.68-171.8-518.67,80.61-223,288.22-352.41,463.71-289S911.65,800.6,831,1023.63Z" transform="translate(-24.93 -484.34)"/><path class="cls-1" d="M848.31,966.28s23.13,11,39.14-23.22,57.12-12.1,41.83,15.12-120.33,126.59-123.4,130" transform="translate(-24.93 -484.34)"/><path class="cls-1" d="M921.48,969.25s-55.41,103.42-123,134.46" transform="translate(-24.93 -484.34)"/><path class="cls-1" d="M214.49,742.66s-24.82-6.32-15.25-42.88S163.06,654,157.42,684.67s14.14,180.65,14.3,185.25" transform="translate(-24.93 -484.34)"/><path class="cls-1" d="M156.33,698.16s-22,119.14,10.15,186.23" transform="translate(-24.93 -484.34)"/><path class="cls-1" d="M194.42,1192.7s26.08,105.95,88.73,154.06c0,0-1.94,55.69,37.57,77.24s82-10.39,91.72-32.33,105.07,31,180.57-61.93" transform="translate(-24.93 -484.34)"/><path class="cls-1" d="M330.33,1299.24s1.89,32.52,25.44,42.85,45.35-17.26,45.35-17.26" transform="translate(-24.93 -484.34)"/><path class="cls-2" d="M261.4,1323.27a50.51,50.51,0,0,1,10.19-3.18,64.77,64.77,0,0,1,10.65-1.31,54.75,54.75,0,0,1,10.94.64,38.17,38.17,0,0,1,11,3.47,28.09,28.09,0,0,1,5.1,3.37,22.13,22.13,0,0,1,4.2,4.78,20.8,20.8,0,0,1,3.2,12,28,28,0,0,1-.84,5.75,33.48,33.48,0,0,1-1.86,5.25,37.31,37.31,0,0,1-5.77,9.09c.57-3.54,1.2-6.94,1.51-10.26a48.26,48.26,0,0,0,.26-4.87,32.18,32.18,0,0,0-.37-4.58,16.17,16.17,0,0,0-3.15-7.46,15.33,15.33,0,0,0-2.82-2.77,20.43,20.43,0,0,0-3.57-2.24c-5.22-2.65-11.64-4-18.18-5.07S268.47,1324.16,261.4,1323.27Z" transform="translate(-24.93 -484.34)"/><path class="cls-2" d="M434.83,1386c-6-3.84-11.62-7.71-17.36-11.11s-11.52-6.42-17.22-7.72a20.44,20.44,0,0,0-4.17-.56,15.33,15.33,0,0,0-3.94.33,16.17,16.17,0,0,0-7.19,3.73,32.17,32.17,0,0,0-3.21,3.28,48.26,48.26,0,0,0-2.91,3.92c-1.89,2.75-3.58,5.77-5.4,8.85a37.3,37.3,0,0,1,1.38-10.68,33.49,33.49,0,0,1,1.93-5.22,28,28,0,0,1,3-5,20.8,20.8,0,0,1,10.1-7.14,22.14,22.14,0,0,1,6.29-1,28.09,28.09,0,0,1,6.08.67,38.17,38.17,0,0,1,10.64,4.34,54.74,54.74,0,0,1,8.82,6.5A64.76,64.76,0,0,1,429,1377,50.51,50.51,0,0,1,434.83,1386Z" transform="translate(-24.93 -484.34)"/><path class="cls-1" d="M236,1263.85l74.88,24.34L269,1263.56a113.94,113.94,0,0,1-16.13-11.49l-23.38-19.92S213.81,1241.65,236,1263.85Z" transform="translate(-24.93 -484.34)"/><path class="cls-1" d="M531.06,1365.42l-74-26.75,33.69,4a199.73,199.73,0,0,0,37.38.89l22.79-1.6S556.92,1359.3,531.06,1365.42Z" transform="translate(-24.93 -484.34)"/><path class="cls-3" d="M540.41,1647.68l-6,.15" transform="translate(-24.93 -484.34)"/><path class="cls-4" d="M522.32,1648c-192.49.3-362.86-83.17-462.52-211.2" transform="translate(-24.93 -484.34)"/><path class="cls-3" d="M56.12,1432q-1.81-2.39-3.59-4.8" transform="translate(-24.93 -484.34)"/><polygon class="cls-2" points="0 898.29 4.05 969.19 63.42 930.23 0 898.29 4.05 969.19 63.42 930.23 0 898.29"/></svg>