<svg id="Layer_1" data-name="Layer 1" xmlns="http://www.w3.org/2000/svg" viewBox="0 0 828.67 1139.59"><defs><style>.cls-1{fill:none;stroke:#b0b0b0;stroke-miterlimit:10;stroke-width:9px;}.cls-2{fill:#b0b0b0;}</style></defs><title>Headtop</title><path class="cls-1" d="M879.46,896.8c0,374-165,429.39-337.87,429.39-186.6,0-337.87-82.76-337.87-429.39,0-237.15,151.27-429.39,337.87-429.39S879.46,659.65,879.46,896.8Z" transform="translate(-125.83 -462.91)"/><path class="cls-1" d="M876.21,837s25.49,2.49,28.91-35.14,49.61-30.79,44.48,0-70.14,160-71.85,164.23" transform="translate(-125.83 -462.91)"/><path class="cls-1" d="M946,814.92s-17,116.1-70,168.27" transform="translate(-125.83 -462.91)"/><path class="cls-1" d="M204.12,842.13s-25.49,2.49-28.91-35.14-49.61-30.79-44.48,0,74.71,165.09,76.42,169.36" transform="translate(-125.83 -462.91)"/><path class="cls-1" d="M134.3,820s19.81,119.52,72.85,171.7" transform="translate(-125.83 -462.91)"/><path class="cls-1" d="M338.21,1272.2S398.75,1363,474,1386.92c0,0,17.11,53,61.59,59.88s73.56-37.64,75.27-61.59,109.35-6.57,148.76-119.62" transform="translate(-125.83 -462.91)"/><path class="cls-1" d="M502.25,1326.19s12.83,29.94,38.49,31.65,36.78-31.65,36.78-31.65" transform="translate(-125.83 -462.91)"/><path class="cls-2" d="M445.59,1372.23a50.51,50.51,0,0,1,8.51-6.46,64.76,64.76,0,0,1,9.57-4.85,54.73,54.73,0,0,1,10.5-3.12,38.17,38.17,0,0,1,11.48-.46,28.09,28.09,0,0,1,5.95,1.44,22.13,22.13,0,0,1,5.58,3.07,20.8,20.8,0,0,1,7.07,10.15,28,28,0,0,1,1.17,5.69,33.48,33.48,0,0,1,0,5.57,37.3,37.3,0,0,1-2.34,10.51c-.66-3.52-1.23-6.93-2.07-10.16a48.28,48.28,0,0,0-1.41-4.67,32.19,32.19,0,0,0-1.9-4.18,16.17,16.17,0,0,0-5.5-5.95,15.33,15.33,0,0,0-3.6-1.65,20.43,20.43,0,0,0-4.11-.89c-5.81-.72-12.32.16-18.82,1.41S452.54,1370.66,445.59,1372.23Z" transform="translate(-125.83 -462.91)"/><path class="cls-2" d="M630,1372.23c-7-1.57-13.55-3.3-20.1-4.55s-13-2.12-18.82-1.41a20.43,20.43,0,0,0-4.11.89,15.33,15.33,0,0,0-3.6,1.65,16.17,16.17,0,0,0-5.5,5.95,32.19,32.19,0,0,0-1.9,4.18,48.28,48.28,0,0,0-1.41,4.67c-.84,3.23-1.41,6.64-2.07,10.16a37.31,37.31,0,0,1-2.34-10.51,33.49,33.49,0,0,1,0-5.57,28,28,0,0,1,1.17-5.69,20.8,20.8,0,0,1,7.07-10.15,22.13,22.13,0,0,1,5.58-3.07,28.09,28.09,0,0,1,5.95-1.44,38.17,38.17,0,0,1,11.48.46,54.73,54.73,0,0,1,10.5,3.12,64.76,64.76,0,0,1,9.57,4.85A50.51,50.51,0,0,1,630,1372.23Z" transform="translate(-125.83 -462.91)"/><path class="cls-1" d="M401.52,1325l78.69-2.57-47.74-8.93a113.94,113.94,0,0,1-19.08-5.32l-28.76-10.79S373.09,1311.64,401.52,1325Z" transform="translate(-125.83 -462.91)"/><path class="cls-1" d="M713.51,1320.21H634.82l33-7.71a199.73,199.73,0,0,0,35.46-11.87l20.89-9.25S735.75,1305.66,713.51,1320.21Z" transform="translate(-125.83 -462.91)"/><polygon class="cls-2" points="420.17 1139.59 455.68 1078.09 384.66 1078.09 420.17 1139.59 455.68 1078.09 384.66 1078.09 420.17 1139.59"/></svg>