<svg xmlns="http://www.w3.org/2000/svg" viewBox="0 0 37.55 37.54"><defs><style>.cls-1{fill:#008f85;opacity:0.6;}</style></defs><title>Asset 2</title><g id="Layer_2" data-name="Layer 2"><g id="Layer_1-2" data-name="Layer 1"><path class="cls-1" d="M9.39,37.54a5.63,5.63,0,0,1-5.63-5.63V20.65H1.88a1.88,1.88,0,0,1-1.33-3.2L17.45.55a1.88,1.88,0,0,1,2.65,0L37,17.44a1.88,1.88,0,0,1-1.33,3.2H33.79V31.91a5.63,5.63,0,0,1-5.63,5.63Zm9.38-33L6.29,17a1.88,1.88,0,0,1,1.22,1.76V31.91a1.88,1.88,0,0,0,1.88,1.88h3.75V26.28a3.75,3.75,0,0,1,3.75-3.75h3.75a3.75,3.75,0,0,1,3.75,3.75v7.51h3.75A1.88,1.88,0,0,0,30,31.91V18.77A1.88,1.88,0,0,1,31.25,17Zm1.88,21.75H16.9v7.51h3.75Z"/></g></g></svg>