<svg xmlns="http://www.w3.org/2000/svg" viewBox="0 0 37.54 37.54"><defs><style>.cls-1{fill:#808285;}</style></defs><title>Asset 3</title><g id="Layer_2" data-name="Layer 2"><g id="Layer_1-2" data-name="Layer 1"><path class="cls-1" d="M9.38,26.28H28.15a9.38,9.38,0,0,1,9.38,9.38,1.88,1.88,0,0,1-3.74.22l0-.55A5.63,5.63,0,0,0,28.48,30H9.38a5.63,5.63,0,0,0-5.63,5.63,1.88,1.88,0,1,1-3.75,0,9.38,9.38,0,0,1,9-9.38ZM18.77,0A11.26,11.26,0,1,1,7.51,11.26,11.26,11.26,0,0,1,18.77,0Zm0,3.75a7.51,7.51,0,1,0,7.51,7.51A7.51,7.51,0,0,0,18.77,3.75Z"/></g></g></svg>