<svg xmlns="http://www.w3.org/2000/svg" viewBox="0 0 37.54 37.53"><defs><style>.cls-1{fill:#808285;}</style></defs><title>Asset 5</title><g id="Layer_2" data-name="Layer 2"><g id="Layer_1-2" data-name="Layer 1"><path class="cls-1" d="M16.7,0h4a2.1,2.1,0,0,1,.37.05c1.09.24,1.5.63,2.52,3l.17.4L24.38,5l.05,0,.82-.37a15.09,15.09,0,0,1,3.33-1.23l.13,0h.23A2.56,2.56,0,0,1,30.5,4l.21.18L33.26,6.7l.18.19c.8.88.87,1.51,0,3.78l-.29.73L32.44,13v0l1.59.59.77.3c2,.81,2.39,1.24,2.65,2.23a2.08,2.08,0,0,1,.08.5v3.76a2.29,2.29,0,0,1-.07.65c-.26,1.06-.65,1.46-3,2.47l-.39.16-1.57.63v0L33,25.66c1.41,3.13,1.46,3.82.53,4.85l-.12.13-2.61,2.61a2.54,2.54,0,0,1-1.78.73,9.24,9.24,0,0,1-2.88-.85l-.79-.32-.89-.38-.05,0L24,33.69c-1.13,3-1.52,3.47-2.68,3.77a2.08,2.08,0,0,1-.43.07H17.05a2.3,2.3,0,0,1-.57-.05c-1.09-.24-1.5-.63-2.52-3l-.17-.4-.64-1.58,0,0L11.91,33a9.57,9.57,0,0,1-3.32,1.1A2.57,2.57,0,0,1,7,33.55l-.21-.19L4.28,30.82,4,30.51c-.7-.82-.73-1.46.12-3.65l.45-1.1.54-1.28v0L3.86,24C1.38,23.06.62,22.62.26,21.83l-.1-.25-.08-.27A2.09,2.09,0,0,1,0,20.87V17a2.28,2.28,0,0,1,.07-.66c.24-.95.58-1.37,2.36-2.16l.74-.32,1.9-.77v0l-.71-1.56C3.2,8.89,3.1,8.08,3.84,7.18l.1-.12.24-.25L6.71,4.28a2.54,2.54,0,0,1,1.77-.73,7.14,7.14,0,0,1,2.23.59l1.09.43L13,5.1l.05,0,.47-1.25C14.7.83,15.11.32,16.32.05A2.12,2.12,0,0,1,16.7,0Zm3.05,3.75H17.66l-.3.69-.38,1-.65,1.75a1.88,1.88,0,0,1-.84,1l-.2.1-1.54.64a1.88,1.88,0,0,1-1.22.08l-.24-.08L10.48,8.1l-1-.39-.66-.24L7.36,8.94l.17.44.24.56.3.69.76,1.66a1.88,1.88,0,0,1,.11,1.25l-.08.25-.63,1.53a1.88,1.88,0,0,1-.85.94l-.2.09-2,.82-1,.44-.37.17v2.12l.44.19.56.23.7.27,1.69.63a1.88,1.88,0,0,1,1,.85l.1.2.63,1.52A1.88,1.88,0,0,1,8.94,25l-.08.24L8.13,27l-.46,1.13-.22.6,1.48,1.48L9.37,30l.54-.22,1.36-.6,1-.45a1.88,1.88,0,0,1,1.31-.11l.21.07,1.55.64a1.88,1.88,0,0,1,.95.87l.09.2.38,1,.55,1.33.32.73.17.37h2.1l.3-.71.39-1,.64-1.7a1.88,1.88,0,0,1,.84-1l.2-.1,1.54-.64a1.88,1.88,0,0,1,1.2-.08l.23.08,1.45.62,1.06.43.58.22.38.14,1.48-1.48-.29-.71-.43-1-.76-1.66A1.88,1.88,0,0,1,28.6,24l.08-.25.63-1.52a1.88,1.88,0,0,1,.84-.94l.2-.09,1.73-.69.88-.37L33.2,20l.59-.27V17.64l-.59-.25-.8-.32-2-.75a1.88,1.88,0,0,1-1-.85l-.1-.2-.63-1.53a1.88,1.88,0,0,1-.07-1.22l.08-.24.58-1.36.4-1,.2-.52.22-.6L28.6,7.36l-.44.17-.84.36L27,8l-1.73.79A1.88,1.88,0,0,1,24,8.94l-.24-.08-1.55-.64a1.88,1.88,0,0,1-.94-.85l-.09-.2-.55-1.37-.4-1L20,4.34Zm-1,7.51a7.51,7.51,0,1,1-7.51,7.51A7.51,7.51,0,0,1,18.77,11.26Zm0,3.75a3.75,3.75,0,1,0,3.75,3.75A3.76,3.76,0,0,0,18.77,15Z"/></g></g></svg>